<?xml version="1.0" encoding="UTF-8"?>
<svg xmlns="http://www.w3.org/2000/svg" xmlns:xlink="http://www.w3.org/1999/xlink" width="1280" height="720" viewBox="0 0 1280 720">
<defs>
<g>
<g id="glyph-0-0">
<path d="M 4.75 -4.488281 C 5.054688 -4.289062 5.304688 -4.023438 5.492188 -3.691406 C 5.679688 -3.359375 5.773438 -2.949219 5.773438 -2.46875 C 5.773438 -2.046875 5.6875 -1.675781 5.519531 -1.363281 C 5.351562 -1.050781 5.128906 -0.792969 4.851562 -0.59375 C 4.570312 -0.394531 4.25 -0.242188 3.890625 -0.144531 C 3.53125 -0.046875 3.15625 0 2.765625 0 L 0.242188 0 L 0.242188 -0.273438 C 0.320312 -0.277344 0.414062 -0.285156 0.527344 -0.296875 C 0.636719 -0.308594 0.714844 -0.320312 0.75 -0.339844 C 0.835938 -0.375 0.894531 -0.421875 0.925781 -0.480469 C 0.960938 -0.542969 0.976562 -0.613281 0.976562 -0.699219 L 0.976562 -4.246094 C 0.976562 -4.324219 0.960938 -4.398438 0.929688 -4.464844 C 0.902344 -4.527344 0.839844 -4.578125 0.75 -4.621094 C 0.660156 -4.660156 0.566406 -4.6875 0.46875 -4.699219 C 0.367188 -4.714844 0.289062 -4.722656 0.234375 -4.730469 L 0.234375 -5.003906 L 2.898438 -5.003906 C 3.183594 -5.003906 3.488281 -4.96875 3.8125 -4.894531 C 4.136719 -4.820312 4.449219 -4.6875 4.75 -4.488281 M 4.03125 -0.902344 C 4.144531 -1.089844 4.230469 -1.316406 4.28125 -1.574219 C 4.335938 -1.835938 4.363281 -2.132812 4.363281 -2.472656 C 4.363281 -2.804688 4.328125 -3.105469 4.257812 -3.378906 C 4.1875 -3.652344 4.082031 -3.882812 3.945312 -4.078125 C 3.808594 -4.269531 3.640625 -4.417969 3.4375 -4.523438 C 3.234375 -4.628906 3.003906 -4.683594 2.742188 -4.683594 C 2.660156 -4.683594 2.566406 -4.683594 2.464844 -4.679688 C 2.359375 -4.675781 2.28125 -4.671875 2.230469 -4.667969 L 2.230469 -0.871094 C 2.230469 -0.785156 2.238281 -0.710938 2.261719 -0.648438 C 2.285156 -0.582031 2.324219 -0.527344 2.378906 -0.476562 C 2.429688 -0.425781 2.496094 -0.386719 2.578125 -0.363281 C 2.65625 -0.335938 2.757812 -0.320312 2.886719 -0.320312 C 3.152344 -0.320312 3.378906 -0.371094 3.570312 -0.46875 C 3.757812 -0.566406 3.914062 -0.710938 4.03125 -0.902344 Z "/>
</g>
<g id="glyph-0-1">
<path d="M 3.996094 -0.84375 C 3.914062 -0.707031 3.8125 -0.582031 3.699219 -0.464844 C 3.582031 -0.34375 3.449219 -0.242188 3.300781 -0.160156 C 3.144531 -0.0703125 2.984375 0 2.824219 0.0429688 C 2.660156 0.0898438 2.476562 0.113281 2.269531 0.113281 C 1.917969 0.113281 1.621094 0.0625 1.367188 -0.0351562 C 1.113281 -0.132812 0.90625 -0.265625 0.742188 -0.433594 C 0.574219 -0.601562 0.453125 -0.796875 0.371094 -1.023438 C 0.289062 -1.25 0.25 -1.496094 0.25 -1.761719 C 0.25 -2.003906 0.292969 -2.234375 0.382812 -2.453125 C 0.472656 -2.671875 0.597656 -2.867188 0.757812 -3.039062 C 0.917969 -3.207031 1.121094 -3.34375 1.363281 -3.445312 C 1.605469 -3.550781 1.878906 -3.601562 2.179688 -3.601562 C 2.507812 -3.601562 2.777344 -3.5625 2.992188 -3.480469 C 3.203125 -3.402344 3.378906 -3.289062 3.515625 -3.148438 C 3.648438 -3.015625 3.746094 -2.855469 3.808594 -2.675781 C 3.871094 -2.492188 3.902344 -2.300781 3.902344 -2.101562 L 3.902344 -1.871094 L 1.515625 -1.871094 C 1.515625 -1.390625 1.609375 -1.023438 1.796875 -0.773438 C 1.980469 -0.519531 2.277344 -0.394531 2.679688 -0.394531 C 2.902344 -0.394531 3.101562 -0.457031 3.277344 -0.578125 C 3.453125 -0.699219 3.601562 -0.851562 3.726562 -1.035156 L 3.996094 -0.84375 M 2.648438 -2.183594 C 2.648438 -2.324219 2.640625 -2.46875 2.628906 -2.617188 C 2.613281 -2.765625 2.589844 -2.886719 2.554688 -2.980469 C 2.511719 -3.089844 2.457031 -3.175781 2.390625 -3.230469 C 2.320312 -3.285156 2.230469 -3.316406 2.125 -3.316406 C 1.945312 -3.316406 1.800781 -3.222656 1.691406 -3.039062 C 1.585938 -2.855469 1.527344 -2.566406 1.515625 -2.167969 Z "/>
</g>
<g id="glyph-0-2">
<path d="M 4.859375 0 L 2.742188 0 L 2.742188 -0.257812 C 2.785156 -0.261719 2.839844 -0.269531 2.902344 -0.273438 C 2.964844 -0.28125 3.015625 -0.292969 3.046875 -0.308594 C 3.097656 -0.335938 3.132812 -0.375 3.152344 -0.421875 C 3.175781 -0.472656 3.183594 -0.546875 3.183594 -0.640625 L 3.183594 -2.292969 C 3.183594 -2.53125 3.140625 -2.710938 3.050781 -2.832031 C 2.964844 -2.953125 2.832031 -3.015625 2.660156 -3.015625 C 2.566406 -3.015625 2.480469 -3 2.398438 -2.972656 C 2.316406 -2.945312 2.238281 -2.902344 2.160156 -2.847656 C 2.089844 -2.800781 2.035156 -2.753906 1.996094 -2.703125 C 1.953125 -2.65625 1.917969 -2.613281 1.890625 -2.574219 L 1.890625 -0.679688 C 1.890625 -0.597656 1.902344 -0.53125 1.925781 -0.472656 C 1.949219 -0.417969 1.988281 -0.378906 2.042969 -0.347656 C 2.078125 -0.328125 2.125 -0.308594 2.183594 -0.292969 C 2.238281 -0.277344 2.292969 -0.265625 2.347656 -0.257812 L 2.347656 0 L 0.203125 0 L 0.203125 -0.257812 C 0.261719 -0.261719 0.324219 -0.269531 0.382812 -0.277344 C 0.441406 -0.285156 0.492188 -0.296875 0.535156 -0.308594 C 0.609375 -0.335938 0.664062 -0.375 0.691406 -0.429688 C 0.71875 -0.484375 0.734375 -0.554688 0.734375 -0.640625 L 0.734375 -2.695312 C 0.734375 -2.765625 0.714844 -2.839844 0.675781 -2.910156 C 0.640625 -2.980469 0.589844 -3.039062 0.527344 -3.082031 C 0.488281 -3.109375 0.433594 -3.132812 0.367188 -3.152344 C 0.304688 -3.171875 0.234375 -3.183594 0.15625 -3.191406 L 0.15625 -3.449219 L 1.835938 -3.539062 L 1.890625 -3.488281 L 1.890625 -2.976562 L 1.90625 -2.976562 C 1.96875 -3.035156 2.050781 -3.105469 2.144531 -3.1875 C 2.238281 -3.269531 2.324219 -3.335938 2.40625 -3.390625 C 2.492188 -3.445312 2.605469 -3.492188 2.746094 -3.535156 C 2.886719 -3.574219 3.039062 -3.59375 3.199219 -3.59375 C 3.582031 -3.59375 3.871094 -3.484375 4.0625 -3.265625 C 4.253906 -3.050781 4.347656 -2.761719 4.347656 -2.402344 L 4.347656 -0.671875 C 4.347656 -0.585938 4.363281 -0.515625 4.386719 -0.464844 C 4.414062 -0.414062 4.460938 -0.371094 4.53125 -0.34375 C 4.570312 -0.324219 4.617188 -0.308594 4.671875 -0.292969 C 4.726562 -0.277344 4.789062 -0.265625 4.859375 -0.257812 Z "/>
</g>
<g id="glyph-0-3">
<path d="M 1.835938 0.121094 C 1.609375 0.121094 1.386719 0.0859375 1.167969 0.0195312 C 0.953125 -0.046875 0.78125 -0.117188 0.664062 -0.195312 L 0.558594 0.046875 L 0.28125 0.046875 L 0.234375 -1.269531 L 0.492188 -1.269531 C 0.527344 -1.164062 0.585938 -1.042969 0.671875 -0.910156 C 0.753906 -0.777344 0.847656 -0.660156 0.953125 -0.554688 C 1.0625 -0.449219 1.1875 -0.359375 1.332031 -0.285156 C 1.472656 -0.210938 1.625 -0.175781 1.789062 -0.175781 C 2.003906 -0.175781 2.160156 -0.21875 2.265625 -0.300781 C 2.371094 -0.386719 2.421875 -0.515625 2.421875 -0.6875 C 2.421875 -0.78125 2.398438 -0.859375 2.351562 -0.921875 C 2.304688 -0.980469 2.242188 -1.035156 2.160156 -1.078125 C 2.066406 -1.125 1.964844 -1.167969 1.855469 -1.199219 C 1.746094 -1.230469 1.613281 -1.273438 1.453125 -1.320312 C 1.292969 -1.367188 1.15625 -1.414062 1.042969 -1.460938 C 0.929688 -1.511719 0.808594 -1.585938 0.6875 -1.6875 C 0.582031 -1.78125 0.496094 -1.890625 0.433594 -2.019531 C 0.371094 -2.148438 0.339844 -2.304688 0.339844 -2.484375 C 0.339844 -2.8125 0.476562 -3.082031 0.757812 -3.285156 C 1.035156 -3.492188 1.398438 -3.59375 1.851562 -3.59375 C 2.066406 -3.59375 2.261719 -3.570312 2.441406 -3.527344 C 2.621094 -3.484375 2.773438 -3.4375 2.894531 -3.386719 L 2.96875 -3.59375 L 3.238281 -3.59375 L 3.292969 -2.390625 L 3.046875 -2.390625 C 2.964844 -2.636719 2.824219 -2.847656 2.625 -3.023438 C 2.425781 -3.203125 2.207031 -3.289062 1.976562 -3.289062 C 1.796875 -3.289062 1.65625 -3.253906 1.550781 -3.175781 C 1.449219 -3.101562 1.398438 -2.996094 1.398438 -2.863281 C 1.398438 -2.683594 1.472656 -2.554688 1.625 -2.476562 C 1.773438 -2.394531 1.988281 -2.320312 2.257812 -2.25 C 2.679688 -2.140625 2.988281 -1.996094 3.179688 -1.808594 C 3.375 -1.621094 3.472656 -1.382812 3.472656 -1.09375 C 3.472656 -0.707031 3.324219 -0.410156 3.019531 -0.199219 C 2.71875 0.015625 2.324219 0.121094 1.835938 0.121094 Z "/>
</g>
</g>
</defs>
<g fill="rgb(96.078431%, 93.72549%, 100%)" fill-opacity="1">
<use xlink:href="#glyph-0-0" x="30" y="26.623047"/>
<use xlink:href="#glyph-0-1" x="36" y="26.623047"/>
<use xlink:href="#glyph-0-2" x="40" y="26.623047"/>
<use xlink:href="#glyph-0-3" x="45" y="26.623047"/>
<use xlink:href="#glyph-0-1" x="49" y="26.623047"/>
</g>
</svg>
