<?xml version="1.0" encoding="UTF-8"?>
<svg xmlns="http://www.w3.org/2000/svg" xmlns:xlink="http://www.w3.org/1999/xlink" width="1280" height="720" viewBox="0 0 1280 720">
<defs>
<g>
<g id="glyph-0-0">
<path d="M 5.816406 -2.035156 C 5.742188 -2.027344 5.679688 -2.019531 5.621094 -2.011719 C 5.566406 -2 5.496094 -1.980469 5.410156 -1.953125 C 5.3125 -1.921875 5.25 -1.871094 5.21875 -1.800781 C 5.1875 -1.730469 5.171875 -1.65625 5.171875 -1.578125 L 5.171875 -1 C 5.171875 -0.878906 5.175781 -0.785156 5.175781 -0.714844 C 5.179688 -0.640625 5.183594 -0.554688 5.1875 -0.449219 C 4.953125 -0.308594 4.605469 -0.175781 4.144531 -0.0507812 C 3.6875 0.0742188 3.261719 0.136719 2.878906 0.136719 C 2.515625 0.136719 2.175781 0.0820312 1.859375 -0.0273438 C 1.542969 -0.140625 1.261719 -0.304688 1.023438 -0.527344 C 0.78125 -0.746094 0.59375 -1.015625 0.457031 -1.339844 C 0.320312 -1.664062 0.25 -2.039062 0.25 -2.457031 C 0.25 -2.847656 0.316406 -3.207031 0.445312 -3.539062 C 0.574219 -3.871094 0.761719 -4.15625 1.003906 -4.398438 C 1.246094 -4.636719 1.535156 -4.820312 1.882812 -4.949219 C 2.226562 -5.078125 2.605469 -5.140625 3.027344 -5.140625 C 3.308594 -5.140625 3.574219 -5.105469 3.816406 -5.035156 C 4.058594 -4.964844 4.257812 -4.890625 4.414062 -4.808594 L 4.632812 -5.003906 L 4.941406 -5.003906 L 4.972656 -3.175781 L 4.664062 -3.175781 C 4.484375 -3.726562 4.269531 -4.132812 4.019531 -4.402344 C 3.769531 -4.667969 3.457031 -4.800781 3.074219 -4.800781 C 2.625 -4.800781 2.273438 -4.601562 2.03125 -4.207031 C 1.785156 -3.8125 1.660156 -3.265625 1.660156 -2.574219 C 1.660156 -1.835938 1.78125 -1.261719 2.023438 -0.84375 C 2.261719 -0.425781 2.605469 -0.21875 3.046875 -0.21875 C 3.253906 -0.21875 3.4375 -0.25 3.597656 -0.3125 C 3.761719 -0.375 3.886719 -0.445312 3.972656 -0.527344 L 3.972656 -1.542969 C 3.972656 -1.628906 3.960938 -1.699219 3.929688 -1.757812 C 3.898438 -1.816406 3.835938 -1.867188 3.746094 -1.90625 C 3.675781 -1.941406 3.585938 -1.96875 3.480469 -1.988281 C 3.375 -2.011719 3.285156 -2.027344 3.214844 -2.035156 L 3.214844 -2.308594 L 5.816406 -2.308594 Z "/>
</g>
<g id="glyph-0-1">
<path d="M 5.675781 0 L 2.949219 0 L 2.949219 -0.273438 C 3.074219 -0.285156 3.222656 -0.308594 3.394531 -0.34375 C 3.566406 -0.378906 3.652344 -0.425781 3.652344 -0.480469 C 3.652344 -0.5 3.652344 -0.519531 3.648438 -0.542969 C 3.644531 -0.566406 3.632812 -0.597656 3.617188 -0.636719 L 3.191406 -1.675781 L 1.460938 -1.675781 C 1.421875 -1.578125 1.378906 -1.464844 1.332031 -1.335938 C 1.28125 -1.207031 1.242188 -1.09375 1.207031 -0.992188 C 1.160156 -0.859375 1.136719 -0.765625 1.128906 -0.707031 C 1.121094 -0.648438 1.113281 -0.605469 1.113281 -0.582031 C 1.113281 -0.507812 1.171875 -0.441406 1.285156 -0.390625 C 1.398438 -0.335938 1.589844 -0.296875 1.855469 -0.273438 L 1.855469 0 L -0.199219 0 L -0.199219 -0.273438 C -0.121094 -0.28125 -0.03125 -0.292969 0.0664062 -0.3125 C 0.164062 -0.332031 0.238281 -0.359375 0.296875 -0.394531 C 0.394531 -0.453125 0.472656 -0.519531 0.542969 -0.601562 C 0.609375 -0.683594 0.664062 -0.78125 0.707031 -0.894531 C 0.980469 -1.554688 1.253906 -2.21875 1.527344 -2.882812 C 1.800781 -3.542969 2.105469 -4.277344 2.4375 -5.074219 L 3.140625 -5.074219 C 3.601562 -3.941406 3.964844 -3.046875 4.226562 -2.386719 C 4.484375 -1.730469 4.707031 -1.183594 4.890625 -0.75 C 4.921875 -0.679688 4.960938 -0.617188 5.007812 -0.558594 C 5.054688 -0.5 5.121094 -0.445312 5.207031 -0.394531 C 5.273438 -0.355469 5.351562 -0.328125 5.4375 -0.308594 C 5.523438 -0.292969 5.605469 -0.28125 5.675781 -0.273438 L 5.675781 0 M 3.042969 -2.023438 L 2.320312 -3.832031 L 1.605469 -2.023438 Z "/>
</g>
<g id="glyph-0-2">
<path d="M 4.933594 -3.753906 C 4.933594 -3.46875 4.875 -3.226562 4.757812 -3.023438 C 4.644531 -2.820312 4.480469 -2.65625 4.277344 -2.527344 C 4.066406 -2.398438 3.824219 -2.300781 3.554688 -2.242188 C 3.28125 -2.183594 2.976562 -2.15625 2.636719 -2.15625 L 2.230469 -2.15625 L 2.230469 -0.746094 C 2.230469 -0.664062 2.246094 -0.589844 2.277344 -0.527344 C 2.308594 -0.464844 2.367188 -0.414062 2.457031 -0.378906 C 2.503906 -0.359375 2.582031 -0.339844 2.6875 -0.316406 C 2.792969 -0.296875 2.882812 -0.28125 2.957031 -0.273438 L 2.957031 0 L 0.242188 0 L 0.242188 -0.273438 C 0.3125 -0.28125 0.402344 -0.292969 0.515625 -0.304688 C 0.628906 -0.316406 0.707031 -0.332031 0.75 -0.351562 C 0.84375 -0.390625 0.902344 -0.4375 0.933594 -0.488281 C 0.960938 -0.542969 0.976562 -0.621094 0.976562 -0.714844 L 0.976562 -4.246094 C 0.976562 -4.328125 0.960938 -4.398438 0.933594 -4.460938 C 0.90625 -4.519531 0.84375 -4.570312 0.75 -4.609375 C 0.683594 -4.636719 0.597656 -4.664062 0.488281 -4.683594 C 0.378906 -4.707031 0.296875 -4.722656 0.242188 -4.730469 L 0.242188 -5.003906 L 3.003906 -5.003906 C 3.652344 -5.003906 4.132812 -4.902344 4.453125 -4.695312 C 4.773438 -4.488281 4.933594 -4.175781 4.933594 -3.753906 M 3.558594 -3.574219 C 3.558594 -3.949219 3.484375 -4.226562 3.332031 -4.410156 C 3.179688 -4.59375 2.910156 -4.683594 2.523438 -4.683594 L 2.230469 -4.683594 L 2.230469 -2.484375 L 2.378906 -2.484375 C 2.761719 -2.484375 3.054688 -2.574219 3.257812 -2.753906 C 3.457031 -2.929688 3.558594 -3.203125 3.558594 -3.574219 Z "/>
</g>
</g>
</defs>
<g fill="rgb(96.078431%, 93.72549%, 100%)" fill-opacity="1">
<use xlink:href="#glyph-0-0" x="30" y="26.623047"/>
<use xlink:href="#glyph-0-1" x="36" y="26.623047"/>
<use xlink:href="#glyph-0-2" x="41" y="26.623047"/>
</g>
</svg>
