<?xml version="1.0" encoding="UTF-8"?>
<svg xmlns="http://www.w3.org/2000/svg" xmlns:xlink="http://www.w3.org/1999/xlink" width="1280" height="720" viewBox="0 0 1280 720">
<defs>
<g>
<g id="glyph-0-0">
<path d="M 3.152344 -1.308594 C 3.152344 -0.683594 2.941406 -0.171875 2.519531 0.226562 C 2.097656 0.625 1.519531 0.871094 0.789062 0.964844 L 0.730469 0.710938 L 1.003906 0.664062 C 1.214844 0.605469 1.390625 0.527344 1.527344 0.433594 C 1.667969 0.339844 1.78125 0.226562 1.871094 0.101562 C 1.964844 -0.0273438 2.035156 -0.164062 2.082031 -0.308594 C 2.128906 -0.449219 2.167969 -0.597656 2.191406 -0.753906 C 2.039062 -0.621094 1.894531 -0.53125 1.75 -0.492188 C 1.609375 -0.449219 1.449219 -0.429688 1.273438 -0.429688 C 1.125 -0.429688 0.988281 -0.457031 0.859375 -0.515625 C 0.730469 -0.574219 0.617188 -0.652344 0.523438 -0.753906 C 0.425781 -0.859375 0.351562 -0.980469 0.296875 -1.128906 C 0.242188 -1.273438 0.214844 -1.429688 0.214844 -1.601562 C 0.214844 -1.960938 0.355469 -2.261719 0.632812 -2.5 C 0.914062 -2.738281 1.261719 -2.859375 1.675781 -2.859375 C 2.128906 -2.859375 2.488281 -2.71875 2.753906 -2.4375 C 3.019531 -2.15625 3.152344 -1.78125 3.152344 -1.308594 M 2.214844 -1.167969 C 2.214844 -1.191406 2.214844 -1.21875 2.214844 -1.253906 C 2.21875 -1.289062 2.21875 -1.324219 2.21875 -1.355469 C 2.21875 -1.769531 2.167969 -2.082031 2.070312 -2.300781 C 1.972656 -2.519531 1.84375 -2.632812 1.683594 -2.632812 C 1.53125 -2.632812 1.410156 -2.546875 1.3125 -2.382812 C 1.21875 -2.214844 1.167969 -1.972656 1.167969 -1.660156 C 1.167969 -1.382812 1.21875 -1.164062 1.316406 -1.003906 C 1.414062 -0.839844 1.539062 -0.757812 1.699219 -0.757812 C 1.796875 -0.757812 1.890625 -0.777344 1.972656 -0.816406 C 2.058594 -0.855469 2.136719 -0.929688 2.207031 -1.039062 C 2.207031 -1.046875 2.210938 -1.0625 2.210938 -1.082031 C 2.210938 -1.105469 2.214844 -1.132812 2.214844 -1.167969 Z "/>
</g>
<g id="glyph-0-1">
<path d="M 3.203125 -1.191406 C 3.203125 -0.828125 3.066406 -0.523438 2.792969 -0.277344 C 2.519531 -0.03125 2.167969 0.0898438 1.742188 0.0898438 C 1.296875 0.0898438 0.941406 -0.0507812 0.671875 -0.328125 C 0.398438 -0.609375 0.265625 -0.984375 0.265625 -1.453125 C 0.265625 -2.082031 0.476562 -2.601562 0.902344 -3.011719 C 1.328125 -3.421875 1.902344 -3.671875 2.632812 -3.757812 L 2.691406 -3.5 L 2.417969 -3.457031 C 2.210938 -3.398438 2.035156 -3.320312 1.894531 -3.222656 C 1.753906 -3.125 1.640625 -3.011719 1.546875 -2.882812 C 1.460938 -2.761719 1.390625 -2.625 1.34375 -2.46875 C 1.292969 -2.316406 1.253906 -2.164062 1.230469 -2.015625 C 1.378906 -2.148438 1.527344 -2.238281 1.671875 -2.285156 C 1.820312 -2.332031 1.976562 -2.355469 2.148438 -2.355469 C 2.441406 -2.355469 2.691406 -2.246094 2.894531 -2.03125 C 3.101562 -1.816406 3.203125 -1.535156 3.203125 -1.191406 M 2.25 -1.125 C 2.25 -1.394531 2.203125 -1.609375 2.105469 -1.769531 C 2.011719 -1.929688 1.882812 -2.011719 1.722656 -2.011719 C 1.617188 -2.011719 1.523438 -1.992188 1.445312 -1.957031 C 1.367188 -1.917969 1.289062 -1.84375 1.210938 -1.730469 C 1.210938 -1.71875 1.210938 -1.707031 1.210938 -1.683594 C 1.207031 -1.664062 1.207031 -1.632812 1.207031 -1.601562 C 1.203125 -1.5625 1.203125 -1.527344 1.203125 -1.496094 C 1.203125 -1.460938 1.199219 -1.433594 1.199219 -1.410156 C 1.199219 -1 1.25 -0.683594 1.351562 -0.464844 C 1.453125 -0.246094 1.582031 -0.136719 1.738281 -0.136719 C 1.890625 -0.136719 2.015625 -0.222656 2.109375 -0.394531 C 2.203125 -0.566406 2.25 -0.808594 2.25 -1.125 Z "/>
</g>
</g>
</defs>
<g fill="rgb(82.352941%, 72.156863%, 100%)" fill-opacity="1">
<use xlink:href="#glyph-0-0" x="30" y="24.838867"/>
<use xlink:href="#glyph-0-1" x="33" y="24.838867"/>
</g>
</svg>
